<svg xmlns="http://www.w3.org/2000/svg" xmlns:xlink="http://www.w3.org/1999/xlink" width="48" zoomAndPan="magnify" viewBox="0 0 36 36.000001" height="48" preserveAspectRatio="xMidYMid meet" version="1.0"><defs><g/><clipPath id="7b9a4d38db"><path d="M 4.996094 21 L 8 21 L 8 24.371094 L 4.996094 24.371094 Z M 4.996094 21 " clip-rule="nonzero"/></clipPath><clipPath id="722552f8f3"><path d="M 4.996094 10.507812 L 8 10.507812 L 8 21 L 4.996094 21 Z M 4.996094 10.507812 " clip-rule="nonzero"/></clipPath><clipPath id="e985609d83"><path d="M 8 21 L 18.859375 21 L 18.859375 24.371094 L 8 24.371094 Z M 8 21 " clip-rule="nonzero"/></clipPath></defs><g clip-path="url(#7b9a4d38db)"><path fill="#1ebbd7" d="M 5.269531 24.511719 L 7.742188 24.511719 L 7.742188 21.488281 L 4.996094 21.488281 L 4.996094 24.234375 C 4.996094 24.386719 5.117188 24.511719 5.269531 24.511719 Z M 6.367188 22.589844 C 6.519531 22.589844 6.640625 22.710938 6.640625 22.863281 C 6.640625 23.015625 6.519531 23.136719 6.367188 23.136719 C 6.214844 23.136719 6.09375 23.015625 6.09375 22.863281 C 6.09375 22.710938 6.214844 22.589844 6.367188 22.589844 Z M 6.367188 22.589844 " fill-opacity="1" fill-rule="nonzero"/></g><g clip-path="url(#722552f8f3)"><path fill="#1ebbd7" d="M 4.996094 20.941406 L 7.742188 20.941406 L 7.742188 20.117188 L 6.378906 20.117188 C 6.230469 20.117188 6.101562 20.007812 6.09375 19.859375 C 6.082031 19.699219 6.210938 19.566406 6.367188 19.566406 L 7.742188 19.566406 L 7.742188 18.882812 L 6.925781 18.882812 C 6.78125 18.882812 6.652344 18.769531 6.644531 18.625 C 6.632812 18.464844 6.757812 18.332031 6.917969 18.332031 L 7.742188 18.332031 L 7.742188 17.644531 L 6.378906 17.644531 C 6.230469 17.644531 6.101562 17.535156 6.09375 17.390625 C 6.082031 17.230469 6.210938 17.097656 6.367188 17.097656 L 7.742188 17.097656 L 7.742188 16.410156 L 6.925781 16.410156 C 6.78125 16.410156 6.652344 16.300781 6.644531 16.15625 C 6.632812 15.996094 6.757812 15.863281 6.917969 15.863281 L 7.742188 15.863281 L 7.742188 15.175781 L 6.378906 15.175781 C 6.230469 15.175781 6.101562 15.066406 6.09375 14.917969 C 6.082031 14.757812 6.210938 14.625 6.367188 14.625 L 7.742188 14.625 L 7.742188 13.941406 L 6.925781 13.941406 C 6.78125 13.941406 6.652344 13.828125 6.644531 13.683594 C 6.632812 13.523438 6.757812 13.390625 6.917969 13.390625 L 7.742188 13.390625 L 7.742188 12.703125 L 6.378906 12.703125 C 6.230469 12.703125 6.101562 12.59375 6.09375 12.449219 C 6.082031 12.289062 6.210938 12.15625 6.367188 12.15625 L 7.742188 12.15625 L 7.742188 10.78125 C 7.742188 10.632812 7.617188 10.507812 7.464844 10.507812 L 5.269531 10.507812 C 5.117188 10.507812 4.996094 10.632812 4.996094 10.78125 Z M 4.996094 20.941406 " fill-opacity="1" fill-rule="nonzero"/></g><g clip-path="url(#e985609d83)"><path fill="#1ebbd7" d="M 17.898438 21.765625 L 17.898438 23.402344 C 17.898438 23.546875 17.789062 23.675781 17.640625 23.6875 C 17.480469 23.695312 17.347656 23.570312 17.347656 23.410156 L 17.347656 21.765625 L 16.113281 21.765625 L 16.113281 23.402344 C 16.113281 23.546875 16.003906 23.675781 15.859375 23.6875 C 15.699219 23.695312 15.566406 23.570312 15.566406 23.410156 L 15.566406 21.765625 L 14.464844 21.765625 L 14.464844 23.402344 C 14.464844 23.546875 14.355469 23.675781 14.210938 23.6875 C 14.050781 23.695312 13.917969 23.570312 13.917969 23.410156 L 13.917969 21.765625 L 12.820312 21.765625 L 12.820312 23.402344 C 12.820312 23.546875 12.710938 23.675781 12.5625 23.6875 C 12.402344 23.695312 12.269531 23.570312 12.269531 23.410156 L 12.269531 21.765625 L 11.171875 21.765625 L 11.171875 23.402344 C 11.171875 23.546875 11.0625 23.675781 10.914062 23.6875 C 10.757812 23.695312 10.625 23.570312 10.625 23.410156 L 10.625 21.765625 L 9.386719 21.765625 L 9.386719 23.402344 C 9.386719 23.546875 9.277344 23.675781 9.132812 23.6875 C 8.972656 23.695312 8.839844 23.570312 8.839844 23.410156 L 8.839844 21.765625 L 8.289062 21.765625 L 8.289062 24.511719 L 18.449219 24.511719 C 18.597656 24.511719 18.722656 24.386719 18.722656 24.234375 L 18.722656 22.039062 C 18.722656 21.886719 18.597656 21.765625 18.449219 21.765625 Z M 17.898438 21.765625 " fill-opacity="1" fill-rule="nonzero"/></g><g fill="#ffffff" fill-opacity="1"><g transform="translate(8.647056, 19.95124)"><g><path d="M 5.078125 0 L 3.453125 0 L 1.546875 -2.1875 L 1.546875 0 L 0.375 0 L 0.375 -5.171875 L 1.546875 -5.171875 L 1.546875 -3.0625 L 3.328125 -5.171875 L 4.75 -5.171875 L 2.671875 -2.71875 Z M 5.078125 0 "/></g></g></g><g fill="#ffffff" fill-opacity="1"><g transform="translate(13.089213, 19.95124)"><g><path d="M 0.375 0 L 0.375 -3.21875 L 1.484375 -3.21875 L 1.484375 -2.75 L 1.5 -2.75 C 1.507812 -2.769531 1.519531 -2.789062 1.53125 -2.8125 C 1.550781 -2.832031 1.59375 -2.875 1.65625 -2.9375 C 1.71875 -3 1.785156 -3.054688 1.859375 -3.109375 C 1.929688 -3.160156 2.023438 -3.207031 2.140625 -3.25 C 2.253906 -3.289062 2.367188 -3.3125 2.484375 -3.3125 C 2.597656 -3.3125 2.710938 -3.289062 2.828125 -3.25 C 2.953125 -3.21875 3.039062 -3.1875 3.09375 -3.15625 L 3.1875 -3.109375 L 2.71875 -2.171875 C 2.582031 -2.285156 2.390625 -2.34375 2.140625 -2.34375 C 2.003906 -2.34375 1.890625 -2.3125 1.796875 -2.25 C 1.703125 -2.195312 1.632812 -2.128906 1.59375 -2.046875 C 1.550781 -1.960938 1.519531 -1.890625 1.5 -1.828125 C 1.488281 -1.765625 1.484375 -1.71875 1.484375 -1.6875 L 1.484375 0 Z M 0.375 0 "/></g></g></g><g fill="#ffffff" fill-opacity="1"><g transform="translate(15.720653, 19.95124)"><g><path d="M 1.421875 -3.21875 L 1.421875 -1.6875 C 1.421875 -1.363281 1.46875 -1.132812 1.5625 -1 C 1.65625 -0.875 1.816406 -0.8125 2.046875 -0.8125 C 2.285156 -0.8125 2.453125 -0.875 2.546875 -1 C 2.640625 -1.132812 2.6875 -1.363281 2.6875 -1.6875 L 2.6875 -3.21875 L 3.796875 -3.21875 L 3.796875 -1.421875 C 3.796875 -0.878906 3.65625 -0.488281 3.375 -0.25 C 3.101562 -0.0195312 2.660156 0.09375 2.046875 0.09375 C 1.441406 0.09375 1 -0.0195312 0.71875 -0.25 C 0.445312 -0.488281 0.3125 -0.878906 0.3125 -1.421875 L 0.3125 -3.21875 Z M 1.421875 -3.21875 "/></g></g></g><g fill="#ffffff" fill-opacity="1"><g transform="translate(19.342035, 19.95124)"><g><path d="M 5.078125 0 L 3.453125 0 L 1.546875 -2.1875 L 1.546875 0 L 0.375 0 L 0.375 -5.171875 L 1.546875 -5.171875 L 1.546875 -3.0625 L 3.328125 -5.171875 L 4.75 -5.171875 L 2.671875 -2.71875 Z M 5.078125 0 "/></g></g></g><g fill="#ffffff" fill-opacity="1"><g transform="translate(23.784192, 19.95124)"><g><path d="M 0.46875 -5 C 0.601562 -5.132812 0.757812 -5.203125 0.9375 -5.203125 C 1.125 -5.203125 1.28125 -5.132812 1.40625 -5 C 1.539062 -4.875 1.609375 -4.71875 1.609375 -4.53125 C 1.609375 -4.351562 1.539062 -4.203125 1.40625 -4.078125 C 1.28125 -3.953125 1.125 -3.890625 0.9375 -3.890625 C 0.757812 -3.890625 0.601562 -3.953125 0.46875 -4.078125 C 0.34375 -4.203125 0.28125 -4.351562 0.28125 -4.53125 C 0.28125 -4.71875 0.34375 -4.875 0.46875 -5 Z M 0.375 -3.21875 L 0.375 0 L 1.484375 0 L 1.484375 -3.21875 Z M 0.375 -3.21875 "/></g></g></g><g fill="#ffffff" fill-opacity="1"><g transform="translate(25.187601, 19.95124)"><g><path d="M 0.5625 -3.21875 L 0.5625 -4.40625 L 1.671875 -4.40625 L 1.671875 -3.21875 L 2.34375 -3.21875 L 2.34375 -2.375 L 1.671875 -2.375 L 1.671875 -1.34375 C 1.671875 -1.050781 1.753906 -0.90625 1.921875 -0.90625 C 1.960938 -0.90625 2.003906 -0.910156 2.046875 -0.921875 C 2.097656 -0.941406 2.132812 -0.960938 2.15625 -0.984375 L 2.203125 -1 L 2.46875 -0.109375 C 2.238281 0.0234375 1.96875 0.09375 1.65625 0.09375 C 1.445312 0.09375 1.265625 0.0546875 1.109375 -0.015625 C 0.960938 -0.0859375 0.851562 -0.1875 0.78125 -0.3125 C 0.707031 -0.4375 0.648438 -0.566406 0.609375 -0.703125 C 0.578125 -0.835938 0.5625 -0.984375 0.5625 -1.140625 L 0.5625 -2.375 L 0.09375 -2.375 L 0.09375 -3.21875 Z M 0.5625 -3.21875 "/></g></g></g><g fill="#1ebbd7" fill-opacity="1"><g transform="translate(27.174165, 19.95124)"><g><path d="M 1.09375 -1.34375 C 1.289062 -1.34375 1.457031 -1.269531 1.59375 -1.125 C 1.738281 -0.988281 1.8125 -0.820312 1.8125 -0.625 C 1.8125 -0.425781 1.738281 -0.253906 1.59375 -0.109375 C 1.457031 0.0234375 1.289062 0.09375 1.09375 0.09375 C 0.894531 0.09375 0.722656 0.0234375 0.578125 -0.109375 C 0.441406 -0.253906 0.375 -0.425781 0.375 -0.625 C 0.375 -0.820312 0.441406 -0.988281 0.578125 -1.125 C 0.722656 -1.269531 0.894531 -1.34375 1.09375 -1.34375 Z M 1.09375 -1.34375 "/></g></g></g></svg>