<svg xmlns="http://www.w3.org/2000/svg" xmlns:xlink="http://www.w3.org/1999/xlink" width="500" zoomAndPan="magnify" viewBox="0 0 375 374.999991" height="500" preserveAspectRatio="xMidYMid meet" version="1.0"><defs><g/><clipPath id="088e995786"><path d="M 48.265625 230 L 78 230 L 78 262.5 L 48.265625 262.5 Z M 48.265625 230 " clip-rule="nonzero"/></clipPath><clipPath id="f18216e33a"><path d="M 48.265625 112.5 L 78 112.5 L 78 225 L 48.265625 225 Z M 48.265625 112.5 " clip-rule="nonzero"/></clipPath><clipPath id="24b65ebc47"><path d="M 83 233 L 195.265625 233 L 195.265625 262.5 L 83 262.5 Z M 83 233 " clip-rule="nonzero"/></clipPath></defs><g clip-path="url(#088e995786)"><path fill="#1ebbd7" d="M 51.203125 262.46875 L 77.664062 262.46875 L 77.664062 230.128906 L 48.265625 230.128906 L 48.265625 259.53125 C 48.265625 261.152344 49.582031 262.46875 51.203125 262.46875 Z M 62.964844 241.890625 C 64.585938 241.890625 65.902344 243.210938 65.902344 244.828125 C 65.902344 246.449219 64.585938 247.769531 62.964844 247.769531 C 61.34375 247.769531 60.023438 246.449219 60.023438 244.828125 C 60.023438 243.210938 61.34375 241.890625 62.964844 241.890625 Z M 62.964844 241.890625 " fill-opacity="1" fill-rule="nonzero"/></g><g clip-path="url(#f18216e33a)"><path fill="#1ebbd7" d="M 48.265625 224.25 L 77.664062 224.25 L 77.664062 215.429688 L 63.066406 215.429688 C 61.5 215.429688 60.132812 214.25 60.03125 212.6875 C 59.917969 210.972656 61.273438 209.550781 62.964844 209.550781 L 77.664062 209.550781 L 77.664062 202.199219 L 68.945312 202.199219 C 67.378906 202.199219 66.011719 201.019531 65.910156 199.457031 C 65.800781 197.742188 67.15625 196.320312 68.84375 196.320312 L 77.664062 196.320312 L 77.664062 188.96875 L 63.066406 188.96875 C 61.5 188.96875 60.132812 187.789062 60.03125 186.226562 C 59.917969 184.511719 61.277344 183.089844 62.964844 183.089844 L 77.664062 183.089844 L 77.664062 175.738281 L 68.945312 175.738281 C 67.378906 175.738281 66.011719 174.558594 65.910156 172.996094 C 65.800781 171.285156 67.15625 169.859375 68.84375 169.859375 L 77.664062 169.859375 L 77.664062 162.511719 L 63.066406 162.511719 C 61.5 162.511719 60.132812 161.328125 60.03125 159.765625 C 59.917969 158.054688 61.277344 156.628906 62.964844 156.628906 L 77.664062 156.628906 L 77.664062 149.28125 L 68.945312 149.28125 C 67.378906 149.28125 66.011719 148.097656 65.910156 146.535156 C 65.800781 144.824219 67.15625 143.398438 68.84375 143.398438 L 77.664062 143.398438 L 77.664062 136.050781 L 63.066406 136.050781 C 61.5 136.050781 60.132812 134.867188 60.03125 133.304688 C 59.917969 131.59375 61.277344 130.171875 62.964844 130.171875 L 77.664062 130.171875 L 77.664062 115.46875 C 77.664062 113.847656 76.347656 112.53125 74.722656 112.53125 L 51.203125 112.53125 C 49.582031 112.53125 48.265625 113.847656 48.265625 115.46875 Z M 48.265625 224.25 " fill-opacity="1" fill-rule="nonzero"/></g><g clip-path="url(#24b65ebc47)"><path fill="#1ebbd7" d="M 186.445312 233.070312 L 186.445312 250.609375 C 186.445312 252.175781 185.261719 253.542969 183.699219 253.644531 C 181.988281 253.753906 180.5625 252.398438 180.5625 250.710938 L 180.5625 233.070312 L 167.335938 233.070312 L 167.335938 250.609375 C 167.335938 252.175781 166.152344 253.542969 164.589844 253.644531 C 162.878906 253.753906 161.453125 252.398438 161.453125 250.710938 L 161.453125 233.070312 L 149.695312 233.070312 L 149.695312 250.609375 C 149.695312 252.175781 148.511719 253.542969 146.949219 253.644531 C 145.238281 253.753906 143.8125 252.398438 143.8125 250.710938 L 143.8125 233.070312 L 132.054688 233.070312 L 132.054688 250.609375 C 132.054688 252.175781 130.871094 253.542969 129.308594 253.644531 C 127.597656 253.753906 126.175781 252.398438 126.175781 250.710938 L 126.175781 233.070312 L 114.414062 233.070312 L 114.414062 250.609375 C 114.414062 252.175781 113.234375 253.542969 111.667969 253.644531 C 109.957031 253.753906 108.535156 252.398438 108.535156 250.710938 L 108.535156 233.070312 L 95.304688 233.070312 L 95.304688 250.609375 C 95.304688 252.175781 94.121094 253.542969 92.558594 253.644531 C 90.847656 253.753906 89.425781 252.398438 89.425781 250.710938 L 89.425781 233.070312 L 83.542969 233.070312 L 83.542969 262.46875 L 192.324219 262.46875 C 193.949219 262.46875 195.265625 261.152344 195.265625 259.53125 L 195.265625 236.011719 C 195.265625 234.386719 193.949219 233.070312 192.324219 233.070312 Z M 186.445312 233.070312 " fill-opacity="1" fill-rule="nonzero"/></g><g fill="#000000" fill-opacity="1"><g transform="translate(87.376943, 214.10646)"><g><path d="M 54.40625 0 L 37.03125 0 L 16.640625 -23.484375 L 16.640625 0 L 4.03125 0 L 4.03125 -55.34375 L 16.640625 -55.34375 L 16.640625 -32.734375 L 35.625 -55.34375 L 50.90625 -55.34375 L 28.640625 -29.109375 Z M 54.40625 0 "/></g></g></g><g fill="#000000" fill-opacity="1"><g transform="translate(134.934324, 214.10646)"><g><path d="M 4.03125 0 L 4.03125 -34.40625 L 15.890625 -34.40625 L 15.890625 -29.453125 L 16.03125 -29.453125 C 16.125 -29.628906 16.269531 -29.847656 16.46875 -30.109375 C 16.664062 -30.378906 17.097656 -30.847656 17.765625 -31.515625 C 18.441406 -32.191406 19.160156 -32.796875 19.921875 -33.328125 C 20.679688 -33.867188 21.664062 -34.351562 22.875 -34.78125 C 24.082031 -35.207031 25.3125 -35.421875 26.5625 -35.421875 C 27.863281 -35.421875 29.140625 -35.238281 30.390625 -34.875 C 31.640625 -34.519531 32.554688 -34.164062 33.140625 -33.8125 L 34.078125 -33.265625 L 29.109375 -23.203125 C 27.628906 -24.460938 25.570312 -25.09375 22.9375 -25.09375 C 21.507812 -25.09375 20.28125 -24.773438 19.25 -24.140625 C 18.21875 -23.515625 17.488281 -22.753906 17.0625 -21.859375 C 16.644531 -20.972656 16.34375 -20.210938 16.15625 -19.578125 C 15.976562 -18.953125 15.890625 -18.460938 15.890625 -18.109375 L 15.890625 0 Z M 4.03125 0 "/></g></g></g><g fill="#000000" fill-opacity="1"><g transform="translate(163.106289, 214.10646)"><g><path d="M 15.234375 -34.40625 L 15.234375 -18.046875 C 15.234375 -14.648438 15.742188 -12.234375 16.765625 -10.796875 C 17.796875 -9.367188 19.539062 -8.65625 22 -8.65625 C 24.457031 -8.65625 26.203125 -9.367188 27.234375 -10.796875 C 28.265625 -12.234375 28.78125 -14.648438 28.78125 -18.046875 L 28.78125 -34.40625 L 40.65625 -34.40625 L 40.65625 -15.15625 C 40.65625 -9.4375 39.164062 -5.3125 36.1875 -2.78125 C 33.21875 -0.257812 28.488281 1 22 1 C 15.519531 1 10.789062 -0.257812 7.8125 -2.78125 C 4.84375 -5.3125 3.359375 -9.4375 3.359375 -15.15625 L 3.359375 -34.40625 Z M 15.234375 -34.40625 "/></g></g></g><g fill="#000000" fill-opacity="1"><g transform="translate(201.876507, 214.10646)"><g><path d="M 54.40625 0 L 37.03125 0 L 16.640625 -23.484375 L 16.640625 0 L 4.03125 0 L 4.03125 -55.34375 L 16.640625 -55.34375 L 16.640625 -32.734375 L 35.625 -55.34375 L 50.90625 -55.34375 L 28.640625 -29.109375 Z M 54.40625 0 "/></g></g></g><g fill="#000000" fill-opacity="1"><g transform="translate(249.433878, 214.10646)"><g><path d="M 5.15625 -53.59375 C 6.550781 -54.976562 8.207031 -55.671875 10.125 -55.671875 C 12.050781 -55.671875 13.707031 -54.976562 15.09375 -53.59375 C 16.476562 -52.207031 17.171875 -50.550781 17.171875 -48.625 C 17.171875 -46.707031 16.476562 -45.054688 15.09375 -43.671875 C 13.707031 -42.285156 12.050781 -41.59375 10.125 -41.59375 C 8.207031 -41.59375 6.550781 -42.285156 5.15625 -43.671875 C 3.769531 -45.054688 3.078125 -46.707031 3.078125 -48.625 C 3.078125 -50.550781 3.769531 -52.207031 5.15625 -53.59375 Z M 4.03125 -34.40625 L 4.03125 0 L 15.890625 0 L 15.890625 -34.40625 Z M 4.03125 -34.40625 "/></g></g></g><g fill="#000000" fill-opacity="1"><g transform="translate(264.458645, 214.10646)"><g><path d="M 6.03125 -34.40625 L 6.03125 -47.21875 L 17.90625 -47.21875 L 17.90625 -34.40625 L 25.15625 -34.40625 L 25.15625 -25.359375 L 17.90625 -25.359375 L 17.90625 -14.421875 C 17.90625 -11.242188 18.800781 -9.65625 20.59375 -9.65625 C 21.039062 -9.65625 21.507812 -9.742188 22 -9.921875 C 22.488281 -10.109375 22.867188 -10.289062 23.140625 -10.46875 L 23.546875 -10.734375 L 26.5 -1.140625 C 23.945312 0.285156 21.039062 1 17.78125 1 C 15.539062 1 13.613281 0.609375 12 -0.171875 C 10.394531 -0.953125 9.175781 -2 8.34375 -3.3125 C 7.519531 -4.632812 6.925781 -6.019531 6.5625 -7.46875 C 6.207031 -8.925781 6.03125 -10.484375 6.03125 -12.140625 L 6.03125 -25.359375 L 1.078125 -25.359375 L 1.078125 -34.40625 Z M 6.03125 -34.40625 "/></g></g></g><g fill="#000000" fill-opacity="1"><g transform="translate(285.721618, 214.10646)"><g><path d="M 11.671875 -14.359375 C 13.816406 -14.359375 15.640625 -13.609375 17.140625 -12.109375 C 18.640625 -10.609375 19.390625 -8.785156 19.390625 -6.640625 C 19.390625 -4.535156 18.640625 -2.734375 17.140625 -1.234375 C 15.640625 0.253906 13.816406 1 11.671875 1 C 9.566406 1 7.765625 0.253906 6.265625 -1.234375 C 4.773438 -2.734375 4.03125 -4.535156 4.03125 -6.640625 C 4.03125 -8.785156 4.773438 -10.609375 6.265625 -12.109375 C 7.765625 -13.609375 9.566406 -14.359375 11.671875 -14.359375 Z M 11.671875 -14.359375 "/></g></g></g></svg>